<?xml version="1.0" encoding="utf-8"?><svg viewBox="0 0 440 166" xmlns="http://www.w3.org/2000/svg" xmlns:xlink="http://www.w3.org/1999/xlink"><style>:root>svg{display:none}:root>svg:target{display:block}</style><svg viewBox="0 0 440 157" fill="none" id="404" xmlns="http://www.w3.org/2000/svg"><path d="M141.565 122.521h-24.866v31.877H82.234v-31.877H0V98.884L71.982 2.602h37.082L42.317 93.896h41.008V65.49h33.374v28.407h24.866v28.625zM217.572 157c-12.651 0-23.921-3.108-33.809-9.325-9.889-6.216-17.669-15.179-23.34-26.889-5.526-11.855-8.289-25.95-8.289-42.286 0-16.336 2.763-30.36 8.289-42.07 5.671-11.854 13.451-20.889 23.34-27.105C193.651 3.108 204.921 0 217.572 0c12.652 0 23.922 3.108 33.81 9.325 9.889 6.216 17.596 15.251 23.122 27.106 5.671 11.71 8.507 25.733 8.507 42.069 0 16.336-2.836 30.431-8.507 42.286-5.526 11.71-13.233 20.673-23.122 26.889-9.888 6.217-21.158 9.325-33.81 9.325zm0-29.709c9.307 0 16.578-3.975 21.813-11.926 5.381-7.952 8.071-20.24 8.071-36.865 0-16.625-2.69-28.913-8.071-36.865-5.235-7.95-12.506-11.926-21.813-11.926-9.161 0-16.432 3.975-21.812 11.926-5.235 7.952-7.853 20.24-7.853 36.865 0 16.625 2.618 28.913 7.853 36.865 5.38 7.951 12.651 11.926 21.812 11.926zM440 122.521h-24.867v31.877h-34.464v-31.877h-82.234V98.884l71.982-96.282h37.082l-66.747 91.294h41.008V65.49h33.373v28.407H440v28.625z" fill="#4F4F4F"/></svg><svg viewBox="0 0 5 6" fill="none" id="breadcrumbs_delimiter" xmlns="http://www.w3.org/2000/svg"><path d="M1 5.5c.156-.146 2.065-1.775 3-2.572L1 .5" stroke="#fff" stroke-linecap="round"/></svg><svg viewBox="0 0 18 18" fill="none" id="checkbox" xmlns="http://www.w3.org/2000/svg"><path fill-rule="evenodd" clip-rule="evenodd" d="M16 0H2C.9 0 0 .9 0 2v14c0 1.1.9 2 2 2h14c1.1 0 2-.9 2-2V2c0-1.1-.9-2-2-2zM7 14L2 9.192l1.4-1.346L7 11.308 14.6 4 16 5.346 7 14z" fill="#1AA057"/></svg><svg viewBox="0 0 18 19" fill="none" id="checkbox_empty" xmlns="http://www.w3.org/2000/svg"><path fill-rule="evenodd" clip-rule="evenodd" d="M16 2.924v14H2v-14h14zm0-2H2c-1.1 0-2 .9-2 2v14c0 1.1.9 2 2 2h14c1.1 0 2-.9 2-2v-14c0-1.1-.9-2-2-2z" fill="#1AA057"/></svg><svg viewBox="0 0 18 18" fill="none" id="close" xmlns="http://www.w3.org/2000/svg"><path opacity=".5" d="M18 1.813L16.187 0 9 7.187 1.813 0 0 1.813 7.187 9 0 16.187 1.813 18 9 10.813 16.187 18 18 16.187 10.813 9 18 1.813z" fill="#fff"/></svg><svg viewBox="0 0 15 3" fill="none" id="dots" xmlns="http://www.w3.org/2000/svg"><path d="M1.498 3c-.415 0-.773-.147-1.074-.44A1.49 1.49 0 0 1 0 1.486C0 1.064.141.716.424.44.725.147 1.084 0 1.498 0c.414 0 .772.147 1.073.44.302.276.453.624.453 1.046 0 .422-.151.78-.453 1.074-.301.293-.659.44-1.073.44zm5.988 0c-.415 0-.773-.147-1.074-.44a1.49 1.49 0 0 1-.424-1.074c0-.422.141-.77.424-1.046.301-.293.66-.44 1.074-.44.414 0 .772.147 1.074.44.301.276.452.624.452 1.046 0 .422-.15.78-.452 1.074A1.49 1.49 0 0 1 7.486 3zm5.988 0a1.49 1.49 0 0 1-1.074-.44 1.49 1.49 0 0 1-.424-1.074c0-.422.142-.77.424-1.046A1.49 1.49 0 0 1 13.474 0c.415 0 .772.147 1.074.44.301.276.452.624.452 1.046 0 .422-.15.78-.452 1.074a1.49 1.49 0 0 1-1.074.44z" fill="#fff"/></svg><svg viewBox="0 0 28 25" fill="none" id="header-burger" xmlns="http://www.w3.org/2000/svg"><rect width="28" height="25" rx="5" fill="#fff"/><path d="M22.333 17.504a.83.83 0 0 1-.829.83H14.83a.83.83 0 0 1 0-1.66h6.675a.83.83 0 0 1 .83.83zm0-5.004a.83.83 0 0 1-.829.83H6.496a.83.83 0 1 1 0-1.66h15.008a.83.83 0 0 1 .83.83zm-.829-4.175a.83.83 0 0 0 0-1.658H11.496a.83.83 0 1 0 0 1.658h10.008z" fill="#000"/></svg><svg viewBox="0 0 28 25" fill="none" id="header-filter" xmlns="http://www.w3.org/2000/svg"><rect width="28" height="25" rx="5" fill="#191919"/><path d="M21.428 5H6.572C6.256 5 6 5.24 6 5.536v2.678c0 .152.069.297.19.399l5.524 4.662v6.189c0 .296.256.536.572.536a.62.62 0 0 0 .255-.056l3.429-1.608a.533.533 0 0 0 .316-.48v-4.582l5.525-4.66a.521.521 0 0 0 .189-.4V5.536C22 5.24 21.744 5 21.428 5z" fill="#fff"/></svg><svg viewBox="0 0 28 25" fill="none" id="header-plus" xmlns="http://www.w3.org/2000/svg"><rect width="28" height="25" rx="5" fill="#191919"/><path d="M15.714 11.16c-.158 0-.285-.12-.285-.267V5H12.57v5.893c0 .148-.127.268-.285.268H6v2.678h6.286c.158 0 .285.12.285.268V20h2.858v-5.893c0-.148.127-.268.285-.268H22v-2.678h-6.286z" fill="#fff"/></svg><svg viewBox="0 0 128 128" fill="none" id="howto-1" xmlns="http://www.w3.org/2000/svg"><path d="M128 64c0 35.346-28.654 64-64 64-35.346 0-64-28.654-64-64C0 28.654 28.654 0 64 0c35.346 0 64 28.654 64 64zM8.658 64c0 30.565 24.777 55.342 55.342 55.342 30.565 0 55.342-24.777 55.342-55.342 0-30.565-24.777-55.342-55.342-55.342C33.435 8.658 8.658 33.435 8.658 64z" fill="#1D1D1D"/><path d="M0 64a64 64 0 0 0 64 64v-8.658A55.337 55.337 0 0 1 8.658 64H0z" fill="#1D87E4"/></svg><svg viewBox="0 0 128 128" fill="none" id="howto-2" xmlns="http://www.w3.org/2000/svg"><path d="M128 64c0 35.346-28.654 64-64 64-35.346 0-64-28.654-64-64C0 28.654 28.654 0 64 0c35.346 0 64 28.654 64 64zM8.658 64c0 30.565 24.777 55.342 55.342 55.342 30.565 0 55.342-24.777 55.342-55.342 0-30.565-24.777-55.342-55.342-55.342C33.435 8.658 8.658 33.435 8.658 64z" fill="#1D1D1D"/><path d="M0 64a64 64 0 1 0 128 0h-8.658A55.341 55.341 0 1 1 8.658 64H0z" fill="#F8A724"/></svg><svg viewBox="0 0 128 128" fill="none" id="howto-3" xmlns="http://www.w3.org/2000/svg"><path d="M128 64c0 35.346-28.654 64-64 64-35.346 0-64-28.654-64-64C0 28.654 28.654 0 64 0c35.346 0 64 28.654 64 64zM8.658 64c0 30.565 24.777 55.342 55.342 55.342 30.565 0 55.342-24.777 55.342-55.342 0-30.565-24.777-55.342-55.342-55.342C33.435 8.658 8.658 33.435 8.658 64z" fill="#1D1D1D"/><path d="M0 64A64 64 0 1 0 64 0v8.658A55.342 55.342 0 1 1 8.658 64H0z" fill="#4CAF50"/></svg><svg viewBox="0 0 128 128" fill="none" id="howto-4" xmlns="http://www.w3.org/2000/svg"><path d="M128 64c0 35.346-28.654 64-64 64-35.346 0-64-28.654-64-64C0 28.654 28.654 0 64 0c35.346 0 64 28.654 64 64zM8.658 64c0 30.565 24.777 55.342 55.342 55.342 30.565 0 55.342-24.777 55.342-55.342 0-30.565-24.777-55.342-55.342-55.342C33.435 8.658 8.658 33.435 8.658 64z" fill="#E53935"/></svg><svg viewBox="0 0 14 15" fill="none" id="instagram" xmlns="http://www.w3.org/2000/svg"><path d="M10.21.387H3.79C1.7.387 0 2.087 0 4.177v6.42c0 2.09 1.7 3.79 3.79 3.79h6.42c2.09 0 3.79-1.7 3.79-3.79v-6.42c0-2.09-1.7-3.79-3.79-3.79zM7 11.215a3.832 3.832 0 0 1-3.828-3.828A3.832 3.832 0 0 1 7 3.559a3.832 3.832 0 0 1 3.828 3.828A3.832 3.832 0 0 1 7 11.215zm3.92-6.754a1.132 1.132 0 0 1 0-2.262 1.132 1.132 0 0 1 0 2.262z" fill="#979797"/><path d="M7 5.233a2.156 2.156 0 0 0-2.154 2.154c0 1.187.966 2.154 2.154 2.154a2.156 2.156 0 0 0 2.153-2.154A2.156 2.156 0 0 0 7 5.233zm3.92-2.213a.31.31 0 1 0 0 .622.31.31 0 0 0 0-.622z" fill="#979797"/></svg><svg viewBox="0 0 86 23" fill="none" id="logo" xmlns="http://www.w3.org/2000/svg"><path d="M8.303 17.5l-.563-2.14H4.03l-.58 2.14H.061L3.787 6.031h4.117L11.678 17.5H8.303zM7.1 12.828l-.493-1.875a80.54 80.54 0 0 1-.421-1.617 27.994 27.994 0 0 1-.32-1.422c-.048.266-.141.703-.282 1.313-.135.609-.44 1.81-.914 3.601H7.1zm14.312-1.89c0 .515-.15.942-.453 1.28-.302.34-.716.553-1.242.641v.063c.635.073 1.122.291 1.46.656.34.36.509.823.509 1.39 0 1.688-1.375 2.532-4.125 2.532h-4.82V8.648h4.835c1.287 0 2.248.188 2.883.563.635.375.953.95.953 1.726zm-2.828 3.734c0-.276-.094-.474-.281-.594-.188-.12-.459-.18-.813-.18h-1.695V15.5h1.664c.75 0 1.125-.276 1.125-.828zm-.211-3.328c0-.464-.281-.696-.844-.696h-1.734v1.329h1.617c.323 0 .563-.06.719-.18a.544.544 0 0 0 .242-.453zm13.297-.422h-2.914V17.5H25.7v-6.578h-2.914V8.648h8.883v2.274zm9.898 2.133c0 1.448-.39 2.578-1.171 3.39-.777.808-1.865 1.211-3.266 1.211-1.344 0-2.414-.414-3.211-1.242-.792-.828-1.188-1.948-1.188-3.36 0-1.442.388-2.562 1.165-3.359.78-.802 1.875-1.203 3.28-1.203.87 0 1.639.185 2.305.555.667.37 1.18.9 1.54 1.594.364.687.546 1.492.546 2.414zm-5.734 0c0 .76.101 1.34.305 1.742.203.396.544.594 1.023.594.474 0 .807-.198 1-.594.198-.401.297-.982.297-1.742 0-.755-.099-1.326-.297-1.711-.198-.386-.536-.578-1.015-.578-.47 0-.805.192-1.008.578-.204.38-.305.95-.305 1.71zm14.063-4.407v2.274h-3.524V17.5h-3.055V8.648h6.579zm6.75 9.008c-.448 0-.85-.073-1.204-.218-.354-.151-.705-.42-1.054-.805h-.141c.094.62.14 1.005.14 1.156v3.555h-3.054V8.648h2.484l.43 1.125h.14c.568-.854 1.352-1.28 2.352-1.28.98 0 1.748.405 2.305 1.218.557.812.836 1.927.836 3.344 0 1.427-.292 2.552-.875 3.375-.578.817-1.365 1.226-2.36 1.226zm-1.024-6.765c-.448 0-.763.161-.945.484-.177.318-.274.792-.29 1.422v.242c0 .76.102 1.31.305 1.649.204.338.524.507.961.507.39 0 .675-.166.852-.5.177-.338.266-.896.266-1.672 0-.76-.09-1.304-.266-1.632-.177-.334-.471-.5-.883-.5zM67.404 17.5l-.586-1.172h-.062c-.412.51-.83.86-1.258 1.047-.427.188-.98.281-1.656.281-.834 0-1.49-.25-1.969-.75-.48-.5-.719-1.203-.719-2.11 0-.942.328-1.642.985-2.1.656-.464 1.606-.725 2.851-.782l1.477-.047v-.125c0-.729-.36-1.094-1.078-1.094-.646 0-1.466.22-2.461.657l-.883-2.016c1.031-.531 2.333-.797 3.906-.797 1.136 0 2.013.281 2.633.844.625.562.938 1.349.938 2.36V17.5h-2.118zm-2.265-2c.37 0 .685-.117.945-.352.266-.234.398-.539.398-.914v-.687l-.703.031c-1.005.037-1.507.406-1.507 1.11 0 .541.288.812.867.812zm18.593-2.414c0 1.281-.416 2.305-1.25 3.07-.833.766-2.018 1.214-3.554 1.344v3.844h-2.86V17.5c-1.51-.156-2.698-.622-3.562-1.398-.86-.782-1.29-1.787-1.29-3.016 0-1.344.407-2.393 1.22-3.149.812-.76 2.01-1.19 3.593-1.289V5.344h2.899v3.304c1.526.136 2.708.594 3.547 1.375.838.782 1.257 1.803 1.257 3.063zm-9.492 0c0 .61.17 1.117.508 1.523.344.401.77.607 1.281.618v-4.305c-.49.02-.911.242-1.265.664a2.28 2.28 0 0 0-.524 1.5zm6.446 0c0-.594-.17-1.096-.508-1.508-.334-.416-.75-.635-1.25-.656v4.305c.51-.01.93-.214 1.258-.61.333-.4.5-.911.5-1.531z" fill="#333"/></svg><svg viewBox="0 0 21 21" fill="none" id="menu-icon" xmlns="http://www.w3.org/2000/svg"><path d="M18.667 15.504a.83.83 0 0 1-.83.83h-6.675a.83.83 0 0 1 0-1.66h6.675a.83.83 0 0 1 .83.83zm0-5.004a.83.83 0 0 1-.83.83H2.83a.83.83 0 1 1 0-1.66h15.009a.83.83 0 0 1 .829.83zm-.829-4.175a.83.83 0 0 0 0-1.658H7.829a.83.83 0 1 0 0 1.658h10.009z" fill="#000"/></svg><svg viewBox="0 0 10 11" fill="none" id="notification-close" xmlns="http://www.w3.org/2000/svg"><path opacity=".5" d="M10 1.724L8.343.067 5 3.41 1.657.067 0 1.724l3.343 3.343L0 8.41l1.657 1.657L5 6.724l3.343 3.343L10 8.41 6.657 5.067 10 1.724z" fill="#fff"/></svg><svg viewBox="0 0 17 15" fill="none" id="search-clean" xmlns="http://www.w3.org/2000/svg"><path d="M3.007 2.295c3.122-2.87 8.198-2.87 11.32 0 3.12 2.87 3.12 7.54 0 10.41-1.561 1.436-3.61 2.153-5.66 2.153-2.05 0-4.1-.717-5.66-2.152-3.12-2.87-3.12-7.54 0-10.411zm2.358 7.374a.579.579 0 0 0 0 .868c.13.12.301.18.472.18.17 0 .342-.06.472-.18l2.357-2.17 2.358 2.169c.13.12.301.18.471.18.17 0 .342-.06.472-.18a.579.579 0 0 0 0-.867L9.61 7.5l2.357-2.168a.579.579 0 0 0 0-.868.708.708 0 0 0-.943 0L8.666 6.633 6.31 4.464a.708.708 0 0 0-.943 0 .579.579 0 0 0 0 .868L7.723 7.5 5.365 9.67z" fill="#ABABAB"/></svg><svg viewBox="0 0 13 7" fill="none" id="select_arrow" xmlns="http://www.w3.org/2000/svg"><path d="M2.184 0l4.694 4.351L11.57 0 13 1.324 6.878 7 .755 1.324 2.184 0z" fill="#B1B1B1"/></svg><svg viewBox="0 0 16 14" fill="none" id="totop" xmlns="http://www.w3.org/2000/svg"><path d="M8.707.293a1 1 0 0 0-1.414 0L.929 6.657A1 1 0 0 0 2.343 8.07L8 2.414l5.657 5.657a1 1 0 1 0 1.414-1.414L8.707.293zM9 14V1H7v13h2z" fill="#000"/></svg><svg viewBox="0 0 25 26" fill="none" id="verified" xmlns="http://www.w3.org/2000/svg"><g clip-path="url(#ua)" fill="#19BB4F"><path d="M11.315 24.58a11.166 11.166 0 0 1-7.944-3.289 11.178 11.178 0 0 1-3.287-7.948c0-3.002 1.169-5.823 3.287-7.948a11.162 11.162 0 0 1 7.944-3.29c1.929 0 3.832.497 5.497 1.436l-.966 1.718a9.243 9.243 0 0 0-4.53-1.184 9.195 9.195 0 0 0-6.551 2.713 9.206 9.206 0 0 0-2.711 6.554c0 2.478.961 4.805 2.711 6.556a9.2 9.2 0 0 0 6.55 2.711 9.19 9.19 0 0 0 6.55-2.712 9.207 9.207 0 0 0 2.712-6.555c0-.572-.052-1.14-.15-1.684l1.937-.36c.122.66.187 1.35.187 2.04 0 3.003-1.168 5.823-3.288 7.948a11.174 11.174 0 0 1-7.948 3.293v.001z"/><path d="M11.325 16.72L6.87 12.352l1.379-1.408 3.067 3.008L22.594 2.724l1.389 1.398L11.325 16.72z"/></g><defs><clipPath id="ua"><path fill="#fff" transform="translate(0 .989)" d="M0 0h24.003v24.023H0z"/></clipPath></defs></svg><svg viewBox="0 0 166 166" fill="none" id="video-play-pause" xmlns="http://www.w3.org/2000/svg"><circle cx="83" cy="83" r="82.5" stroke="#fff"/><path d="M97 83L76 70.876v24.248L97 83z" fill="#fff"/></svg><svg viewBox="0 0 22 11" fill="none" id="vk" xmlns="http://www.w3.org/2000/svg"><path d="M20.63 8.91c-.625-.694-1.361-1.286-2.057-1.915-.628-.567-.668-.896-.163-1.55.551-.715 1.144-1.402 1.7-2.113.519-.665 1.05-1.327 1.323-2.123.173-.506.02-.73-.541-.818a1.869 1.869 0 0 0-.295-.017L17.269.371c-.41-.006-.636.16-.78.496a18.16 18.16 0 0 1-.631 1.347c-.53.994-1.12 1.955-1.948 2.769-.183.18-.384.406-.69.312-.381-.128-.494-.71-.488-.907L12.73.833c-.074-.508-.195-.734-.74-.833H8.532c-.46 0-.692.166-.939.433-.142.154-.185.254.107.305.574.101.897.445.983.977.138.85.128 1.705.049 2.559a2.23 2.23 0 0 1-.177.73c-.167.367-.437.441-.791.216-.321-.204-.547-.491-.767-.78A16.823 16.823 0 0 1 4.967.958c-.156-.355-.425-.57-.83-.576a91.635 91.635 0 0 0-2.996 0c-.6.011-.78.281-.535.785 1.087 2.239 2.297 4.415 3.877 6.398.811 1.017 1.743 1.915 2.946 2.552 1.363.721 2.83.938 4.377.871.724-.03.94-.205.974-.873.023-.457.079-.911.322-1.321.24-.403.601-.48 1.019-.23.208.126.384.286.55.454.408.413.8.838 1.223 1.236.53.5 1.159.795 1.949.735H20.9c.493-.03.748-.589.465-1.098-.198-.356-.46-.674-.736-.98z" fill="#979797"/></svg></svg>